<!--?xml version="1.0" encoding="utf-8"?-->
<!-- Comic-style yellow cuboid favicon for "Furu" -->
<svg xmlns="http://www.w3.org/2000/svg" width="64" height="64" viewBox="0 0 128 128" role="img" aria-label="Furu cuboid favicon">
  <title>Furu Cuboid</title>
  
  <rect width="128" height="128" fill="#fff8e3"></rect>

  <defs>
    <linearGradient id="topGrad" x1="0" y1="0" x2="1" y2="1">
      <stop offset="0" stop-color="#fff9b3"></stop>
      <stop offset="1" stop-color="#ffd966"></stop>
    </linearGradient>
    <linearGradient id="frontGrad" x1="0" y1="0" x2="1" y2="1">
      <stop offset="0" stop-color="#ffe57f"></stop>
      <stop offset="1" stop-color="#ffcc33"></stop>
    </linearGradient>
    <linearGradient id="sideGrad" x1="0" y1="0" x2="1" y2="1">
      <stop offset="0" stop-color="#ffec99"></stop>
      <stop offset="1" stop-color="#f4b400"></stop>
    </linearGradient>
    <filter id="softShadow" x="-50%" y="-50%" width="200%" height="200%">
      <feDropShadow dx="0" dy="4" stdDeviation="4" flood-color="#000" flood-opacity="0.12"></feDropShadow>
    </filter>
    <filter id="jitter" x="-20%" y="-20%" width="140%" height="140%">
      <feTurbulence baseFrequency="0.9" numOctaves="1" seed="4" result="turb"></feTurbulence>
      <feDisplacementMap in="SourceGraphic" in2="turb" scale="0.3" xChannelSelector="R" yChannelSelector="G"></feDisplacementMap>
    </filter>
  </defs>

  <!-- soft shadow underneath -->
  <ellipse cx="64" cy="92" rx="28" ry="8" fill="#000" opacity="0.1"></ellipse>

  <!-- cuboid group -->
  <g filter="url(#softShadow)">
    <!-- top face -->
    <path d="M40 36 
             C52 28, 76 28, 88 36 
             C92 38, 92 40, 88 42 
             C76 50, 52 50, 40 42 
             C36 40, 36 38, 40 36 Z" fill="url(#topGrad)" stroke="#222" stroke-width="3" stroke-linejoin="round"></path>

    <!-- front face -->
    <path d="M40 42 
             C40 58, 40 72, 42 84 
             C44 90, 84 90, 88 84 
             C90 72, 90 58, 88 42 
             C76 50, 52 50, 40 42 Z" fill="url(#frontGrad)" stroke="#222" stroke-width="3" stroke-linejoin="round"></path>

    <!-- side face -->
    <path d="M88 36 
             C94 38, 94 42, 88 42 
             C90 58, 90 72, 88 84 
             C92 82, 96 80, 96 64 
             C96 48, 94 40, 88 36 Z" fill="url(#sideGrad)" stroke="#222" stroke-width="3" stroke-linejoin="round"></path>
  </g>

  <!-- slight jitter outline -->
  <g filter="url(#jitter)" stroke="#111" stroke-width="2.2" fill="none" stroke-linejoin="round" stroke-linecap="round">
    <path d="M40 36 C52 28, 76 28, 88 36 C92 38, 92 40, 88 42 C76 50, 52 50, 40 42 C36 40, 36 38, 40 36 Z"></path>
    <path d="M40 42 C40 58, 40 72, 42 84 C44 90, 84 90, 88 84 C90 72, 90 58, 88 42 C76 50, 52 50, 40 42 Z"></path>
    <path d="M88 36 C94 38, 94 42, 88 42 C90 58, 90 72, 88 84 C92 82, 96 80, 96 64 C96 48, 94 40, 88 36 Z"></path>
  </g>

  <!-- comic-style motion lines -->
  <g stroke="#222" stroke-width="2" fill="none" stroke-linecap="round">
    <path d="M26 50 C34 46, 40 46, 46 44" opacity="0.9"></path>
    <path d="M26 60 C36 56, 46 54, 54 52" opacity="0.8"></path>
    <path d="M94 28 C102 24, 110 26, 114 30" opacity="0.85"></path>
    <path d="M96 96 C104 92, 112 94, 116 98" opacity="0.75"></path>
  </g>

  <!-- little texture dots -->
  <g fill="#000" opacity="0.08">
    <circle cx="70" cy="60" r="1.4"></circle>
    <circle cx="58" cy="68" r="1.4"></circle>
    <circle cx="78" cy="72" r="1.2"></circle>
  </g>
</svg>
