<!--?xml version="1.0" encoding="utf-8"?-->
<!-- Modern art-style Furu favicon -->
<svg xmlns="http://www.w3.org/2000/svg" viewBox="0 0 128 128" width="64" height="64" role="img" aria-label="Furu favicon">
  <title>Furu favicon</title>

  <!-- background -->
  <rect width="128" height="128" fill="#f8f5ee"></rect>

  <!-- subtle shadow under cube -->
  <ellipse cx="64" cy="92" rx="28" ry="10" fill="#222" opacity="0.07"></ellipse>

  <!-- main cuboid -->
  <g>
    <!-- top face -->
    <path d="M44 38 
             C56 32, 72 32, 84 38 
             C86 39, 86 41, 84 42 
             C72 48, 56 48, 44 42 
             C42 41, 42 39, 44 38 Z" fill="#f2f0e9" stroke="#333" stroke-width="2" stroke-linejoin="round"></path>

    <!-- front face -->
    <path d="M44 42
             C44 58, 44 70, 46 82
             C48 86, 80 86, 84 82
             C86 70, 86 58, 84 42
             C72 48, 56 48, 44 42 Z" fill="#e8e4d8" stroke="#333" stroke-width="2" stroke-linejoin="round"></path>

    <!-- side face -->
    <path d="M84 38 
             C90 40, 90 42, 84 42
             C86 58, 86 70, 84 82
             C88 80, 92 76, 92 62
             C92 48, 90 42, 84 38 Z" fill="#ddd8c6" stroke="#333" stroke-width="2" stroke-linejoin="round"></path>
  </g>

  <!-- texture speckles -->
  <g fill="#333" opacity="0.1">
    <circle cx="58" cy="56" r="1.2"></circle>
    <circle cx="70" cy="64" r="1.4"></circle>
    <circle cx="60" cy="74" r="1.1"></circle>
    <circle cx="78" cy="72" r="1.3"></circle>
  </g>

  <!-- abstract aroma / balance lines -->
  <g stroke="#444" stroke-width="1.5" fill="none" opacity="0.5">
    <path d="M32 52 Q28 46, 36 42"></path>
    <path d="M96 44 Q104 46, 100 52"></path>
    <path d="M40 26 Q64 18, 88 26" stroke-width="1" opacity="0.3"></path>
  </g>

  <!-- subtle accent dots -->
  <g fill="#444" opacity="0.3">
    <circle cx="30" cy="92" r="1.5"></circle>
    <circle cx="98" cy="90" r="1.5"></circle>
    <circle cx="64" cy="108" r="1.2"></circle>
  </g>
</svg>
